<?xml version="1.0" encoding="UTF-8"?>
<svg width="16px" height="16px" viewBox="0 0 16 16" version="1.1" xmlns="http://www.w3.org/2000/svg" xmlns:xlink="http://www.w3.org/1999/xlink">
    <title>icon_sxd</title>
    <g id="2.0" stroke="none" stroke-width="1" fill="none" fill-rule="evenodd">
        <g id="讲话稿3" transform="translate(-1576.000000, -426.000000)" fill="#333333" fill-rule="nonzero">
            <g id="编组-12" transform="translate(1560.000000, 249.000000)">
                <g id="编组-15" transform="translate(0.000000, 96.000000)">
                    <g id="编组-14" transform="translate(16.000000, 16.000000)">
                        <g id="icon_sxd" transform="translate(0.000000, 65.000000)">
                            <path d="M5.75647775,10.2435223 L1.26921447,10.2435223 C0.670868941,10.1409175 0.371805565,9.84163533 0.371805565,9.34611335 C0.371805565,8.8503726 0.670868941,8.55130922 1.26921447,8.44870445 L7.55129555,8.44870445 L7.55129555,14.7307855 C7.55129555,15.3291311 7.25223217,15.6281944 6.65388665,15.6281944 C6.05554112,15.6281944 5.75647775,15.3289123 5.75647775,14.7307855 L5.75647775,10.2435223 L5.75647775,10.2435223 Z M10.243741,5.75625897 L14.7310043,5.75625897 C15.3293498,5.85886375 15.6284132,6.15814589 15.6284132,6.65366787 C15.6284132,7.14918985 15.3291311,7.448472 14.7310043,7.55107678 L8.44870445,7.55107678 L8.44870445,1.26921447 C8.44870445,0.670868941 8.74776783,0.371805565 9.34611335,0.371805565 C9.94445888,0.371805565 10.2435223,0.670868941 10.2435223,1.26921447 L10.243741,5.75625897 L10.243741,5.75625897 Z" id="形状"></path>
                            <path d="M0.262856362,14.4680386 L2.80128529,11.9296096 C3.15176044,11.5791345 3.720134,11.5791345 4.07060915,11.9296096 C4.4210843,12.2800848 4.4210843,12.8484583 4.07060915,13.1989335 L1.53196144,15.7371436 C1.18148629,16.0876188 0.61333151,16.0876188 0.262856362,15.7371436 C-0.0876187872,15.3866685 -0.0876187872,14.8185137 0.262856362,14.4680386 Z M11.9296096,2.80128529 L14.4680386,0.262856362 C14.8185137,-0.0876187872 15.3866685,-0.0876187872 15.7371436,0.262856362 C16.0876188,0.61333151 16.0876188,1.18148629 15.7371436,1.53196144 L13.1989335,4.07039037 C12.8484583,4.42086552 12.2803035,4.42086552 11.9298284,4.07039037 C11.5793533,3.71991523 11.5793533,3.15176044 11.9296096,2.80128529 Z" id="形状" opacity="0.3"></path>
                        </g>
                    </g>
                </g>
            </g>
        </g>
    </g>
</svg>